# xmcd
#
# Track frame offsets:
#	150
#	11302
#	25027
#	39280
#	53360
#
# Disc length: 920 seconds
#
# Revision: 1
# Processed by: cddbd v1.5.1PL0 Copyright (c) Steve Scherf et al.
# Submitted via: CDex 1.50Beta5
#
DISCID=24039605
DTITLE=Various Artist - Best Soundo Collection 60's
DYEAR=1900
DGENRE=Folk
TTITLE0=広田　三枝子/ヴァケーション（V・A・C・A・T・I・O・N）
TTITLE1=ザ・ワイルド・ワンズ/思い出の渚
TTITLE2=坂本　九/上を向いて歩こう
TTITLE3=トワ・エ・モア/或る日突然
TTITLE4=はしだのりひことシューベルツ/風
EXTD=
EXTT0=
EXTT1=
EXTT2=
EXTT3=
EXTT4=
PLAYORDER=
